<svg xmlns="http://www.w3.org/2000/svg" xmlns:xlink="http://www.w3.org/1999/xlink" width="500" zoomAndPan="magnify" viewBox="0 0 375 112.499997" height="150" preserveAspectRatio="xMidYMid meet" version="1.0"><defs><g/><clipPath id="98ddfbcd8b"><path d="M 25.8125 12.738281 L 349.429688 12.738281 L 349.429688 99.621094 L 25.8125 99.621094 Z M 25.8125 12.738281 " clip-rule="nonzero"/></clipPath><clipPath id="09ad896b9c"><path d="M 239 54.117188 L 313.710938 54.117188 L 313.710938 96.359375 L 239 96.359375 Z M 239 54.117188 " clip-rule="nonzero"/></clipPath></defs><g clip-path="url(#98ddfbcd8b)"><path fill="#2a2a2a" d="M 349.421875 18.933594 L 349.421875 12.738281 L 25.820312 12.738281 L 25.820312 99.621094 L 349.421875 99.621094 L 349.421875 18.933594 M 347.679688 18.933594 L 347.679688 97.875 L 27.5625 97.875 L 27.5625 14.484375 L 347.679688 14.484375 L 347.679688 18.933594 " fill-opacity="1" fill-rule="nonzero"/></g><g clip-path="url(#09ad896b9c)"><path fill="#000000" d="M 308.914062 67.109375 C 310.957031 67.925781 313.710938 67.925781 313.710938 70.175781 C 313.710938 75.492188 291.765625 78.660156 290.949219 78.660156 L 283.703125 94.503906 C 283.191406 95.730469 282.476562 96.039062 281.65625 96.140625 L 279.308594 96.34375 L 279.308594 85.304688 L 274.714844 81.214844 C 274.207031 81.214844 271.242188 81.726562 265.121094 81.726562 C 257.976562 81.726562 256.035156 81.421875 255.523438 81.421875 L 254.710938 84.894531 C 254.605469 85.511719 252.871094 85.816406 252.566406 85.40625 L 248.890625 80.5 C 248.175781 80.5 246.339844 80.296875 246.339844 79.679688 C 246.339844 78.867188 246.644531 78.558594 247.050781 78.355469 L 239.292969 71.09375 C 238.785156 70.585938 240.621094 69.5625 242.253906 70.378906 L 249.808594 73.957031 L 249.296875 68.027344 L 251.035156 67.722656 C 251.644531 67.621094 252.976562 68.542969 253.382812 68.949219 L 258.691406 74.671875 L 267.878906 72.933594 L 263.589844 68.542969 L 243.480469 55.867188 L 245.214844 54.535156 C 245.214844 54.535156 245.625 54.128906 247.054688 54.128906 L 286.96875 69.667969 L 299.421875 67.316406 C 299.929688 67.210938 302.078125 65.984375 304.628906 65.984375 C 307.386719 65.984375 307.386719 66.496094 308.917969 67.109375 " fill-opacity="1" fill-rule="nonzero"/></g><g fill="#2a2a2a" fill-opacity="1"><g transform="translate(60.201716, 48.725234)"><g><path d="M 4.8125 -22.984375 L 0.46875 -22.984375 L 0.46875 -25.640625 L 12.59375 -25.640625 L 12.59375 -22.984375 L 8.390625 -22.984375 L 8.390625 0 L 4.8125 0 Z M 4.8125 -22.984375 "/></g></g></g><g fill="#2a2a2a" fill-opacity="1"><g transform="translate(81.81747, 48.725234)"><g><path d="M 2 -25.640625 L 5.578125 -25.640625 L 5.578125 -14.5625 L 12.15625 -14.5625 L 12.15625 -25.640625 L 15.734375 -25.640625 L 15.734375 0 L 12.15625 0 L 12.15625 -12 L 5.578125 -12 L 5.578125 0 L 2 0 Z M 2 -25.640625 "/></g></g></g><g fill="#2a2a2a" fill-opacity="1"><g transform="translate(108.116309, 48.725234)"><g><path d="M 2 -25.640625 L 11.9375 -25.640625 L 11.9375 -22.984375 L 5.578125 -22.984375 L 5.578125 -14.5 L 10.734375 -14.5 L 10.734375 -11.96875 L 5.578125 -11.96875 L 5.578125 -2.5625 L 12 -2.5625 L 12 0 L 2 0 Z M 2 -25.640625 "/></g></g></g><g fill="#2a2a2a" fill-opacity="1"><g transform="translate(129.542201, 48.725234)"><g/></g></g><g fill="#2a2a2a" fill-opacity="1"><g transform="translate(145.335734, 48.725234)"><g><path d="M 6.046875 -25.640625 L 9.5 -25.640625 L 14.96875 0 L 11.59375 0 L 10.421875 -6.453125 L 5.1875 -6.453125 L 3.953125 0 L 0.59375 0 Z M 9.9375 -9.015625 L 7.78125 -20.578125 L 5.671875 -9.015625 Z M 9.9375 -9.015625 "/></g></g></g><g fill="#2a2a2a" fill-opacity="1"><g transform="translate(169.451251, 48.725234)"><g><path d="M 0.734375 -25.640625 L 4.078125 -25.640625 L 8.140625 -6.75 L 12 -25.640625 L 15.265625 -25.640625 L 9.59375 0 L 6.453125 0 Z M 0.734375 -25.640625 "/></g></g></g><g fill="#2a2a2a" fill-opacity="1"><g transform="translate(193.978112, 48.725234)"><g><path d="M 2.1875 -25.640625 L 5.703125 -25.640625 L 5.703125 0 L 2.1875 0 Z M 2.1875 -25.640625 "/></g></g></g><g fill="#2a2a2a" fill-opacity="1"><g transform="translate(210.372848, 48.725234)"><g><path d="M 6.046875 -25.640625 L 9.5 -25.640625 L 14.96875 0 L 11.59375 0 L 10.421875 -6.453125 L 5.1875 -6.453125 L 3.953125 0 L 0.59375 0 Z M 9.9375 -9.015625 L 7.78125 -20.578125 L 5.671875 -9.015625 Z M 9.9375 -9.015625 "/></g></g></g><g fill="#2a2a2a" fill-opacity="1"><g transform="translate(234.488364, 48.725234)"><g><path d="M 4.8125 -22.984375 L 0.46875 -22.984375 L 0.46875 -25.640625 L 12.59375 -25.640625 L 12.59375 -22.984375 L 8.390625 -22.984375 L 8.390625 0 L 4.8125 0 Z M 4.8125 -22.984375 "/></g></g></g><g fill="#2a2a2a" fill-opacity="1"><g transform="translate(256.104121, 48.725234)"><g><path d="M 2.1875 -25.640625 L 5.703125 -25.640625 L 5.703125 0 L 2.1875 0 Z M 2.1875 -25.640625 "/></g></g></g><g fill="#2a2a2a" fill-opacity="1"><g transform="translate(272.498857, 48.725234)"><g><path d="M 8.546875 0.28125 C 6.035156 0.28125 4.234375 -0.425781 3.140625 -1.84375 C 2.054688 -3.269531 1.515625 -5.335938 1.515625 -8.046875 L 1.515625 -17.765625 C 1.515625 -20.421875 2.0625 -22.429688 3.15625 -23.796875 C 4.257812 -25.171875 6.054688 -25.859375 8.546875 -25.859375 C 11.035156 -25.859375 12.820312 -25.164062 13.90625 -23.78125 C 15 -22.40625 15.546875 -20.398438 15.546875 -17.765625 L 15.546875 -8.015625 C 15.546875 -5.347656 14.992188 -3.296875 13.890625 -1.859375 C 12.796875 -0.429688 11.015625 0.28125 8.546875 0.28125 Z M 8.546875 -2.53125 C 9.878906 -2.53125 10.773438 -2.921875 11.234375 -3.703125 C 11.703125 -4.484375 11.9375 -5.664062 11.9375 -7.25 L 11.9375 -18.484375 C 11.9375 -20.046875 11.703125 -21.203125 11.234375 -21.953125 C 10.773438 -22.703125 9.878906 -23.078125 8.546875 -23.078125 C 7.191406 -23.078125 6.28125 -22.703125 5.8125 -21.953125 C 5.351562 -21.203125 5.125 -20.046875 5.125 -18.484375 L 5.125 -7.25 C 5.125 -5.664062 5.351562 -4.484375 5.8125 -3.703125 C 6.28125 -2.921875 7.191406 -2.53125 8.546875 -2.53125 Z M 8.546875 -2.53125 "/></g></g></g><g fill="#2a2a2a" fill-opacity="1"><g transform="translate(298.101548, 48.725234)"><g><path d="M 2 -25.640625 L 4.4375 -25.640625 L 11.71875 -8.609375 L 11.71875 -25.640625 L 14.6875 -25.640625 L 14.6875 0 L 12.40625 0 L 5.03125 -17.5 L 5.03125 0 L 2 0 Z M 2 -25.640625 "/></g></g></g><g fill="#2a2a2a" fill-opacity="1"><g transform="translate(144.392117, 92.380451)"><g><path d="M 2 -25.640625 L 8.359375 -25.640625 C 10.578125 -25.640625 12.1875 -25.035156 13.1875 -23.828125 C 14.1875 -22.628906 14.6875 -20.867188 14.6875 -18.546875 C 14.6875 -16.460938 14.144531 -14.835938 13.0625 -13.671875 C 11.988281 -12.515625 10.429688 -11.9375 8.390625 -11.9375 L 5.578125 -11.9375 L 5.578125 0 L 2 0 Z M 7.21875 -14.5 C 8.269531 -14.5 9.085938 -14.613281 9.671875 -14.84375 C 10.253906 -15.070312 10.671875 -15.472656 10.921875 -16.046875 C 11.171875 -16.617188 11.296875 -17.441406 11.296875 -18.515625 C 11.296875 -19.828125 11.203125 -20.785156 11.015625 -21.390625 C 10.828125 -22.003906 10.453125 -22.4375 9.890625 -22.6875 C 9.328125 -22.945312 8.445312 -23.078125 7.25 -23.078125 L 5.578125 -23.078125 L 5.578125 -14.5 Z M 7.21875 -14.5 "/></g></g></g><g fill="#2a2a2a" fill-opacity="1"><g transform="translate(168.127914, 92.380451)"><g><path d="M 6.046875 -25.640625 L 9.5 -25.640625 L 14.96875 0 L 11.59375 0 L 10.421875 -6.453125 L 5.1875 -6.453125 L 3.953125 0 L 0.59375 0 Z M 9.9375 -9.015625 L 7.78125 -20.578125 L 5.671875 -9.015625 Z M 9.9375 -9.015625 "/></g></g></g><g fill="#2a2a2a" fill-opacity="1"><g transform="translate(192.243427, 92.380451)"><g><path d="M 8.109375 0.3125 C 5.785156 0.3125 4.101562 -0.414062 3.0625 -1.875 C 2.03125 -3.34375 1.515625 -5.523438 1.515625 -8.421875 L 1.515625 -17 C 1.515625 -18.976562 1.71875 -20.609375 2.125 -21.890625 C 2.539062 -23.171875 3.25 -24.148438 4.25 -24.828125 C 5.257812 -25.515625 6.640625 -25.859375 8.390625 -25.859375 C 10.753906 -25.859375 12.457031 -25.253906 13.5 -24.046875 C 14.539062 -22.847656 15.0625 -20.960938 15.0625 -18.390625 L 15.0625 -17.4375 L 11.71875 -17.4375 L 11.71875 -18.234375 C 11.71875 -19.453125 11.640625 -20.394531 11.484375 -21.0625 C 11.335938 -21.726562 11.023438 -22.226562 10.546875 -22.5625 C 10.078125 -22.90625 9.378906 -23.078125 8.453125 -23.078125 C 7.460938 -23.078125 6.722656 -22.847656 6.234375 -22.390625 C 5.753906 -21.941406 5.441406 -21.335938 5.296875 -20.578125 C 5.160156 -19.816406 5.09375 -18.800781 5.09375 -17.53125 L 5.09375 -8.046875 C 5.09375 -6.078125 5.328125 -4.664062 5.796875 -3.8125 C 6.273438 -2.957031 7.191406 -2.53125 8.546875 -2.53125 C 9.878906 -2.53125 10.789062 -2.992188 11.28125 -3.921875 C 11.78125 -4.847656 12.03125 -6.335938 12.03125 -8.390625 L 12.03125 -10.15625 L 8.765625 -10.15625 L 8.765625 -12.6875 L 15.265625 -12.6875 L 15.265625 0 L 13.015625 0 L 12.65625 -2.9375 C 11.851562 -0.769531 10.335938 0.3125 8.109375 0.3125 Z M 8.109375 0.3125 "/></g></g></g><g fill="#2a2a2a" fill-opacity="1"><g transform="translate(217.719561, 92.380451)"><g><path d="M 2 -25.640625 L 11.9375 -25.640625 L 11.9375 -22.984375 L 5.578125 -22.984375 L 5.578125 -14.5 L 10.734375 -14.5 L 10.734375 -11.96875 L 5.578125 -11.96875 L 5.578125 -2.5625 L 12 -2.5625 L 12 0 L 2 0 Z M 2 -25.640625 "/></g></g></g></svg>